<?xml version="1.0" encoding="utf-8"?>
<!-- Generator: Adobe Illustrator 18.0.0, SVG Export Plug-In . SVG Version: 6.00 Build 0)  -->
<!DOCTYPE svg PUBLIC "-//W3C//DTD SVG 1.1//EN" "http://www.w3.org/Graphics/SVG/1.1/DTD/svg11.dtd">
<svg version="1.1" id="Layer_1" xmlns="http://www.w3.org/2000/svg" xmlns:xlink="http://www.w3.org/1999/xlink" x="0px" y="0px"
	 viewBox="0 0 230.5 172.7" enable-background="new 0 0 230.5 172.7" xml:space="preserve">
<g>
	<path fill="#FFFFFF" d="M-1199.7,146.9l11.9-12.2l-4.7,2c4.7-2,12.1-19.6,12.1-19.6h-5.4c4-5.4,14.2-26.3,14.2-26.3
		c-2,0.7-10.1,2-10.1,2c10.1-6.7,20.2-25.6,20.2-25.6s4.7,12.8,8.8,14.2c4,1.3-4,2-4,2l5.2,7.4l4.9-7.4c0,0,5.4,13.5,10.1,15.5
		l-7.4-0.7l7.4,12.8l-3.9-1l9.7,11.2l-5.5,0.7l3.5,6.2"/>
	<path d="M-1199.7,146.9l5.8-6.3l5.8-6.2l0.5,0.7l-4.7,2.1l-0.4-1c0.4-0.2,0.7-0.4,1-0.7c0.3-0.3,0.7-0.6,1-1
		c0.6-0.7,1.2-1.5,1.7-2.3c1-1.6,2-3.3,2.9-5c1.8-3.4,3.4-6.9,4.9-10.5l0.9,1.4l-5.4,0.1l-2.1,0l1.2-1.7c1.4-1.9,2.6-4.1,3.8-6.3
		c1.2-2.2,2.3-4.4,3.4-6.6c2.2-4.4,4.5-8.9,6.6-13.4l1.6,1.9c-0.5,0.2-0.9,0.3-1.4,0.4l-1.3,0.3l-2.6,0.5c-1.7,0.3-3.4,0.6-5.1,0.9
		l-5.9,1l4.9-3.6l1.6-1.2c0.5-0.4,1-0.9,1.5-1.3c0.5-0.4,1-0.9,1.4-1.4c0.5-0.5,0.9-0.9,1.4-1.4l1.3-1.5l1.3-1.5
		c0.4-0.5,0.8-1.1,1.3-1.6c0.4-0.5,0.8-1.1,1.2-1.6c1.6-2.2,3.1-4.4,4.6-6.7c0.7-1.1,1.4-2.3,2.1-3.5c0.7-1.2,1.4-2.3,2-3.5l1.6-2.9
		l1.1,3.1c0.3,0.9,0.7,1.8,1.1,2.7c0.4,0.9,0.8,1.8,1.2,2.7c0.4,0.9,0.8,1.7,1.3,2.6c0.5,0.8,0.9,1.7,1.5,2.4
		c0.3,0.4,0.5,0.8,0.8,1.1c0.3,0.4,0.6,0.7,0.9,1c0.1,0.2,0.3,0.3,0.4,0.4c0.1,0.1,0.3,0.3,0.4,0.3c0.1,0,0.1,0.1,0.2,0.1l0.1,0.1
		l0.2,0.1l0.2,0.1l0.3,0.1c0.2,0.1,0.3,0.2,0.5,0.3c0.1,0.1,0.2,0.2,0.3,0.3c0.1,0.1,0.2,0.2,0.2,0.2l0.1,0.1c0,0.1,0.1,0.2,0.1,0.2
		c0.1,0.2,0.1,0.3,0.2,0.6c0,0.2,0,0.5-0.1,0.7c-0.1,0.2-0.1,0.3-0.3,0.5c-0.1,0.1-0.1,0.2-0.2,0.3c-0.3,0.3-0.5,0.4-0.7,0.5
		c-0.2,0.1-0.3,0.1-0.5,0.2c-0.6,0.2-1.1,0.3-1.7,0.4c-1.1,0.2-2,0.3-3.1,0.4l1.1-2.2l5.1,7.5l-2.3,0l5-7.4l1.4-2l0.9,2.3
		c0.6,1.4,1.2,2.8,1.9,4.2c0.7,1.4,1.4,2.8,2.1,4.1c0.4,0.7,0.8,1.3,1.2,2c0.2,0.3,0.4,0.6,0.6,0.9c0.2,0.3,0.4,0.6,0.6,0.9l0.7,0.9
		l0.7,0.8c0.2,0.3,0.5,0.4,0.8,0.7c0.3,0.2,0.5,0.3,0.8,0.5l3.7,2.5l-4.2-0.4l-7.4-0.8l1-1.5l7.2,12.9l0.9,1.6l-1.8-0.5l-3.8-1.1
		l0.7-1.1l9.5,11.5l0.4,0.5l-0.6,0.1l-5.5,0.6l0.2-0.3l3.4,6.3l-3.7-6.1l-0.2-0.3l0.3-0.1l5.5-0.9l-0.2,0.6l-10-11l-1.5-1.6l2.2,0.5
		l3.9,0.9l-0.9,1.1l-7.6-12.7l-1-1.7l2,0.2l7.4,0.6l-0.5,2.1c-0.4-0.2-0.9-0.4-1.2-0.7c-0.3-0.3-0.7-0.5-1-0.8l-0.9-0.9l-0.8-1
		c-0.3-0.3-0.5-0.7-0.7-1c-0.2-0.3-0.5-0.7-0.7-1c-0.5-0.7-0.9-1.4-1.3-2c-0.8-1.4-1.6-2.8-2.3-4.2c-0.7-1.4-1.4-2.9-2-4.4l2.3,0.2
		l-4.9,7.5l-1.1,1.7l-1.2-1.6l-5.2-7.4l-1.4-2l2.5-0.2c0.9-0.1,1.9-0.2,2.8-0.4c0.4-0.1,0.9-0.2,1.2-0.3c0.1,0,0.1-0.1,0.2-0.1
		c0,0,0.1,0-0.1,0.1c0,0-0.1,0.1-0.1,0.1c-0.1,0.1-0.1,0.2-0.2,0.3c0,0.1-0.1,0.3-0.1,0.5c0,0.2,0,0.3,0.1,0.4
		c0,0.1,0.1,0.1,0.1,0.1l0,0.1c0,0,0.1,0.1,0.1,0.1c0,0,0,0,0,0c-0.1-0.1-0.6-0.2-1.3-0.6c-0.3-0.2-0.6-0.4-0.8-0.5
		c-0.2-0.2-0.5-0.4-0.7-0.6c-0.4-0.4-0.8-0.8-1.1-1.3c-0.4-0.4-0.7-0.9-0.9-1.3c-0.6-0.9-1.1-1.8-1.6-2.7c-0.5-0.9-1-1.8-1.4-2.7
		c-0.4-0.9-0.9-1.8-1.3-2.8c-0.4-0.9-0.8-1.9-1.1-2.8l2.7,0.2c-0.7,1.2-1.4,2.4-2.1,3.6c-0.7,1.2-1.4,2.4-2.2,3.5
		c-1.5,2.3-3.1,4.6-4.7,6.9c-0.4,0.6-0.8,1.1-1.3,1.7c-0.4,0.5-0.8,1.1-1.3,1.6l-1.4,1.6l-1.4,1.6c-0.5,0.5-1,1-1.5,1.5
		c-0.5,0.5-1,1-1.5,1.5c-0.5,0.5-1.1,1-1.6,1.4l-1.8,1.3l-1-2.6c1.7-0.3,3.4-0.6,5.1-0.9l2.5-0.5l1.2-0.3c0.4-0.1,0.8-0.2,1.1-0.3
		l3-0.9l-1.4,2.8c-2.2,4.5-4.5,8.9-6.8,13.3c-1.2,2.2-2.4,4.4-3.6,6.6c-0.6,1.1-1.3,2.2-1.9,3.2c-0.3,0.5-0.7,1.1-1,1.6
		c-0.3,0.5-0.7,1.1-1.1,1.6l-0.9-1.7l5.4,0.1l1.5,0l-0.6,1.4c-1.6,3.6-3.4,7.1-5.3,10.5c-1,1.7-2,3.4-3.2,5
		c-0.6,0.8-1.2,1.6-1.9,2.3c-0.3,0.4-0.7,0.7-1.1,1.1c-0.4,0.3-0.9,0.6-1.4,0.9l-0.4-1l4.8-1.9l2.1-0.8l-1.6,1.5l-6.1,6
		L-1199.7,146.9z"/>
</g>
<g>
	<path fill="#FFFFFF" d="M-1216.6,152.2c0,0,247-82.8,450-64.4c3.1,0.3,17.1-44.3,17.1-44.3c1,0.3,13.2,8.6,13.2,8.6l19.5-30.5
		c4.6,0.7,26.1,45.2,26.1,45.2l11.3-11.9c0,0,17.4,52.9,28.8,57c27.7,10.1,49.4,22.4,70.5,40.1"/>
	<path d="M-1216.6,152.2c9.9-3.5,19.9-6.7,30-9.8c10.1-3.1,20.1-6.1,30.3-9c5.1-1.5,10.1-2.8,15.2-4.3l15.3-4.1
		c10.2-2.7,20.4-5.2,30.6-7.7c10.2-2.5,20.5-4.8,30.8-7.1c5.2-1.1,10.3-2.2,15.5-3.3l15.5-3.1l15.5-2.9l15.6-2.8
		c5.2-0.9,10.4-1.7,15.6-2.5l7.8-1.2l7.8-1.1c5.2-0.8,10.4-1.5,15.7-2.2c5.2-0.7,10.5-1.4,15.7-2l15.7-1.8l15.8-1.5
		c5.2-0.5,10.5-0.9,15.8-1.3l7.9-0.6c2.6-0.2,5.3-0.3,7.9-0.4l7.9-0.4c2.6-0.1,5.3-0.3,7.9-0.4l15.8-0.5c10.6-0.1,21.1-0.2,31.7,0.1
		l7.9,0.2l7.9,0.4l7.9,0.4l4,0.2l4,0.3l7.9,0.6l4,0.3l2,0.2l1,0.1l0.5,0c-0.2,0,0.7,0-0.5,0l0.1,0c0.1,0-0.4,0-0.6,0.1
		c-0.2,0-0.6,0.3-0.5,0.3c-0.4,0.3-0.1,0.1-0.1,0c0.1-0.1,0.3-0.4,0.4-0.6c0.3-0.5,0.6-1,0.8-1.6c0.5-1.1,1.1-2.3,1.5-3.5
		c1-2.4,1.9-4.8,2.8-7.2c3.6-9.8,7-19.7,10.2-29.7l0.9-2.7l2.5,0.9c0.2,0.1,0.4,0.2,0.6,0.2l0.3,0.1l0.1,0.1l0.5,0.3l0.9,0.6
		l1.7,1.1l3.3,2.2l6.6,4.5l-3.8,0.8l19.7-30.4l0.9-1.4l1.6,0.3c0.2,0,0.5,0.1,0.7,0.2c0.2,0.1,0.3,0.1,0.5,0.2
		c0.3,0.2,0.5,0.3,0.7,0.4c0.4,0.3,0.6,0.5,0.9,0.8c0.5,0.5,0.9,1,1.3,1.4c0.7,0.9,1.4,1.9,2,2.8c1.3,1.9,2.4,3.8,3.5,5.7
		c2.2,3.8,4.3,7.7,6.4,11.6c4.1,7.8,8,15.6,11.8,23.6l-3.4-0.5l11.4-11.8l2.3-2.4l1,3.1c1.9,5.7,3.9,11.5,6,17.2
		c2.1,5.7,4.4,11.3,6.8,16.9c1.2,2.8,2.5,5.5,3.9,8.2c1.4,2.7,2.8,5.3,4.4,7.8c0.8,1.2,1.7,2.4,2.6,3.5c0.9,1.1,2,2.1,3.1,2.7
		c0.5,0.3,1.3,0.6,2,0.8l2.1,0.8c1.4,0.5,2.8,1.1,4.3,1.7c1.4,0.6,2.8,1.2,4.2,1.8c1.4,0.6,2.8,1.2,4.2,1.9c2.8,1.3,5.5,2.6,8.3,3.9
		l4.1,2.1l4,2.2c2.7,1.5,5.3,3,7.9,4.6c2.6,1.6,5.2,3.2,7.7,4.9c1.3,0.8,2.5,1.7,3.8,2.6c1.2,0.9,2.5,1.8,3.7,2.7
		c2.5,1.8,4.9,3.7,7.2,5.6l3.5,2.9l3.5,3l-3.6-2.8l-3.6-2.8c-2.4-1.8-4.9-3.6-7.4-5.3c-1.2-0.9-2.5-1.7-3.8-2.5
		c-1.3-0.8-2.5-1.7-3.8-2.5c-2.6-1.6-5.2-3.2-7.8-4.7c-2.6-1.5-5.3-3-8-4.4l-4.1-2.1l-4.1-2c-2.8-1.3-5.5-2.5-8.3-3.7
		c-1.4-0.6-2.8-1.2-4.2-1.7c-1.4-0.6-2.8-1.1-4.2-1.7c-1.4-0.5-2.8-1.1-4.3-1.6l-2.2-0.8c-0.7-0.3-1.4-0.4-2.2-0.9
		c-0.4-0.2-0.8-0.4-1.1-0.7c-0.4-0.2-0.7-0.5-1-0.8l-0.9-0.8l-0.8-0.9c-1.1-1.2-2-2.4-2.9-3.7c-3.6-5.1-6.3-10.7-8.9-16.2
		c-2.6-5.6-5-11.2-7.2-16.9c-2.3-5.7-4.4-11.4-6.4-17.2l3.3,0.7l-11.2,12l-2.1,2.2l-1.4-2.8c-3.9-7.8-7.9-15.6-12-23.2
		c-2.1-3.8-4.2-7.6-6.4-11.3c-1.1-1.8-2.2-3.7-3.4-5.4c-0.6-0.9-1.2-1.7-1.8-2.5c-0.3-0.4-0.6-0.7-0.9-1c-0.1-0.1-0.3-0.2-0.3-0.3
		c0,0-0.1-0.1,0,0c0,0,0,0,0.1,0c0.1,0,0.2,0.1,0.3,0.1l2.5-1.1l-19.4,30.6l-1.5,2.3l-2.3-1.5l-6.5-4.4l-3.3-2.1l-1.6-1l-0.8-0.5
		l-0.3-0.2l-0.1,0c0,0,0,0,0,0c0,0,0.1,0,0.1,0l3.4-1.8c-3.2,10.1-6.4,20.1-10,30.1c-0.9,2.5-1.9,5-2.9,7.5
		c-0.5,1.2-1.1,2.5-1.7,3.8c-0.3,0.6-0.6,1.3-1,1.9c-0.2,0.3-0.4,0.7-0.7,1.1c-0.3,0.4-0.5,0.8-1.4,1.4c0,0-0.5,0.3-0.7,0.4
		c-0.2,0.1-0.8,0.2-0.8,0.2l-0.1,0c-1.2,0-0.4,0-0.7,0l-0.5,0l-1-0.1l-2-0.1l-3.9-0.3l-7.8-0.6l-3.9-0.3l-3.9-0.2l-7.8-0.3l-7.8-0.3
		l-7.9-0.1c-10.5-0.3-21-0.1-31.4,0l-15.7,0.5c-2.6,0.1-5.2,0.2-7.9,0.3l-7.9,0.4c-2.6,0.1-5.2,0.2-7.9,0.4l-7.8,0.6
		c-5.2,0.4-10.5,0.7-15.7,1.2l-15.7,1.4l-15.7,1.6c-5.2,0.6-10.4,1.2-15.6,1.8c-5.2,0.6-10.4,1.3-15.6,2l-7.8,1.1l-7.8,1.2
		c-5.2,0.8-10.4,1.5-15.6,2.4l-15.5,2.5l-15.5,2.7l-15.5,2.9c-5.2,1-10.3,2-15.5,3c-10.3,2.1-20.6,4.2-30.9,6.4
		c-10.3,2.2-20.5,4.6-30.7,7l-15.3,3.7c-5.1,1.3-10.2,2.5-15.3,3.8c-10.2,2.6-20.3,5.3-30.5,8.1
		C-1196.4,146.3-1206.5,149.1-1216.6,152.2z"/>
</g>
<circle fill="#FACA17" cx="113.9" cy="-193.2" r="86.4"/>
<circle fill="#FACA17" cx="408.3" cy="-193.2" r="86.4"/>
<circle fill="#FACA17" cx="688.3" cy="-193.2" r="86.4"/>
<circle fill="#FACA17" cx="967.6" cy="-193.2" r="86.4"/>
<circle fill="#FACA17" cx="1248.1" cy="-193.2" r="86.4"/>
<circle fill="#FACA17" cx="1544.5" cy="-193.2" r="86.4"/>
<circle fill="#FACA17" cx="1544.5" cy="86.4" r="86.4"/>
<circle fill="#FACA17" cx="1248.1" cy="86.4" r="86.4"/>
<circle fill="#FACA17" cx="964.9" cy="86.4" r="86.4"/>
<circle fill="#FACA17" cx="688.3" cy="86.4" r="86.4"/>
<circle fill="#FACA17" cx="408.3" cy="86.4" r="86.4"/>
<polygon fill="#F1F2F2" stroke="#F1F2F2" stroke-width="4" stroke-linecap="round" stroke-linejoin="round" stroke-miterlimit="10" points="
	436,42.3 434.9,128.8 418.6,149.7 408.3,70.6 "/>
<g>
	
		<polyline fill="#FACA17" stroke="#F1F2F2" stroke-width="18" stroke-linecap="round" stroke-linejoin="round" stroke-miterlimit="10" points="
		137.3,-234.4 68.9,-192.4 137.3,-153.9 	"/>
	
		<circle fill="#FACA17" stroke="#F1F2F2" stroke-width="18" stroke-linecap="round" stroke-linejoin="round" stroke-miterlimit="10" cx="137.3" cy="-234.4" r="14.9"/>
	
		<circle fill="#FACA17" stroke="#F1F2F2" stroke-width="18" stroke-linecap="round" stroke-linejoin="round" stroke-miterlimit="10" cx="68.9" cy="-190.7" r="14.9"/>
	
		<circle fill="#FACA17" stroke="#F1F2F2" stroke-width="18" stroke-linecap="round" stroke-linejoin="round" stroke-miterlimit="10" cx="137.3" cy="-153.9" r="14.9"/>
</g>
<line fill="none" stroke="#FACA17" stroke-width="18" stroke-linecap="round" stroke-miterlimit="10" x1="451.1" y1="35.9" x2="381.3" y2="129"/>
<polyline fill="#F1F2F2" stroke="#F1F2F2" stroke-width="18" stroke-linecap="round" stroke-linejoin="round" stroke-miterlimit="10" points="
	410.2,-241.3 431.1,-241.3 449.5,-222.3 449.5,-160.8 462.6,-160.8 462.6,-155.8 445.1,-155.8 444.3,-140 436.4,-140 436.4,-154.9 
	410.2,-154.9 406.5,-154.9 380.3,-154.9 380.3,-140 372.4,-140 371.6,-155.8 354,-155.8 354,-160.8 367.2,-160.8 367.2,-222.3 
	385.6,-241.3 406.5,-241.3 "/>
<line fill="#F1F2F2" stroke="#FACA17" stroke-width="9" stroke-linecap="round" stroke-linejoin="round" stroke-miterlimit="10" x1="385.5" y1="-231.1" x2="431.2" y2="-231.1"/>
<path fill="#F1F2F2" stroke="#FACA17" stroke-width="9" stroke-linecap="round" stroke-linejoin="round" stroke-miterlimit="10" d="
	M408.3-193.2h35.8c0-12-6-24.6-6-24.6s-29.8,0-29.8,0h-29.8c0,0-6,12.6-6,24.6C372.5-193.2,408.3-193.2,408.3-193.2z"/>
<circle fill="#FACA17" cx="372.5" cy="-167.3" r="7"/>
<circle fill="#FACA17" cx="444.2" cy="-167.3" r="7"/>
<circle fill="none" stroke="#F1F2F2" stroke-width="18" stroke-miterlimit="10" cx="688.3" cy="-193.2" r="42"/>
<path fill="none" stroke="#F1F2F2" stroke-width="9" stroke-miterlimit="10" d="M712.3-224.8c0,0,113.4-16.1-20,50.6
	c-117.6,58.8-46-12.6-46-12.6"/>
<path fill="none" stroke="#F1F2F2" stroke-width="18" stroke-miterlimit="10" d="M1008-164.8h-80.9c-6.6,0-12-5.4-12-12v-55
	c0-6.6,5.4-12,12-12h80.9c6.6,0,12,5.4,12,12v55C1020-170.2,1014.6-164.8,1008-164.8z"/>
<line fill="none" stroke="#F1F2F2" stroke-width="18" stroke-linecap="round" stroke-miterlimit="10" x1="918.7" y1="-140.4" x2="1016.5" y2="-140.4"/>
<path fill="none" stroke="#F1F2F2" stroke-width="6" stroke-miterlimit="10" d="M977.3-179.1h-19.5c-3.5,0-6.3-2.9-6.3-6.3v-34.7
	c0-3.5,2.9-6.3,6.3-6.3h19.5c3.5,0,6.3,2.9,6.3,6.3v34.7C983.7-182,980.8-179.1,977.3-179.1z"/>
<circle fill="#F1F2F2" cx="967.6" cy="-186.7" r="3.1"/>
<path fill="#F1F2F2" d="M978.2-191.1h-20.7c-0.4,0-0.8-0.3-0.8-0.8v-28.8c0-0.4,0.3-0.8,0.8-0.8h20.7c0.4,0,0.8,0.3,0.8,0.8v28.8
	C979-191.5,978.6-191.1,978.2-191.1z"/>
<g>
	<path fill="#F1F2F2" d="M1282.1-129.5h-68c-3.3,0-5.9-2.6-5.9-5.9v-110.7c0-3.3,2.6-5.9,5.9-5.9h68c3.3,0,5.9,2.6,5.9,5.9v110.7
		C1288-132.2,1285.3-129.5,1282.1-129.5z"/>
	<path fill="#F1F2F2" d="M1275.1-240.3h-53.8c-3.3,0-5.9-2.6-5.9-5.9v-5.9c0-3.3,2.6-5.9,5.9-5.9h53.8c3.3,0,5.9,2.6,5.9,5.9v5.9
		C1281-242.9,1278.4-240.3,1275.1-240.3z"/>
	<path fill="#F1F2F2" d="M1287.7-126.8h-78.9c-3.3,0-5.9-2.6-5.9-5.9v-5.9c0-3.3,2.6-5.9,5.9-5.9h78.9c3.3,0,5.9,2.6,5.9,5.9v5.9
		C1293.6-129.5,1291-126.8,1287.7-126.8z"/>
	
		<polygon fill="#F1F2F2" stroke="#F1F2F2" stroke-width="4" stroke-linecap="round" stroke-linejoin="round" stroke-miterlimit="10" points="
		1249.3,-267 1231.6,-255.1 1267.1,-255.1 	"/>
	
		<path fill="#F1F2F2" stroke="#F1F2F2" stroke-width="4" stroke-linecap="round" stroke-linejoin="round" stroke-miterlimit="10" d="
		M1249.2-251.1L1249.2-251.1c-2.8,0-5.2-2.3-5.2-5.2v-9.5c0-2.8,2.3-5.2,5.2-5.2l0,0c2.8,0,5.2,2.3,5.2,5.2v9.5
		C1254.4-253.4,1252.1-251.1,1249.2-251.1z"/>
	
		<line fill="none" stroke="#FACA17" stroke-width="6" stroke-linecap="round" stroke-linejoin="round" stroke-miterlimit="10" x1="1248.3" y1="-234.1" x2="1248.3" y2="-142.4"/>
	
		<line fill="none" stroke="#FACA17" stroke-width="6" stroke-linecap="round" stroke-linejoin="round" stroke-miterlimit="10" x1="1218.3" y1="-243.6" x2="1277.9" y2="-243.6"/>
	<path fill="none" stroke="#FACA17" stroke-width="6" stroke-miterlimit="10" d="M1221.6-191.2h14.9c1.6,0,3-1.3,3-3v-32.8
		c0-1.6-1.3-3-3-3h-14.9c-1.6,0-3,1.3-3,3v32.8C1218.6-192.5,1220-191.2,1221.6-191.2z"/>
	<path fill="none" stroke="#FACA17" stroke-width="6" stroke-miterlimit="10" d="M1221.4-154.2h14.9c1.6,0,3-1.3,3-3v-21.9
		c0-1.6-1.3-3-3-3h-14.9c-1.6,0-3,1.3-3,3v21.9C1218.5-155.6,1219.8-154.2,1221.4-154.2z"/>
	<path fill="none" stroke="#FACA17" stroke-width="6" stroke-miterlimit="10" d="M1259.7-191.2h14.9c1.6,0,3-1.3,3-3v-32.8
		c0-1.6-1.3-3-3-3h-14.9c-1.6,0-3,1.3-3,3v32.8C1256.7-192.5,1258-191.2,1259.7-191.2z"/>
	<line fill="none" stroke="#FACA17" stroke-width="6" stroke-miterlimit="10" x1="1229.1" y1="-229.9" x2="1229.1" y2="-190.8"/>
	<line fill="none" stroke="#FACA17" stroke-width="6" stroke-miterlimit="10" x1="1218.3" y1="-216" x2="1239.5" y2="-216"/>
	<line fill="none" stroke="#FACA17" stroke-width="6" stroke-miterlimit="10" x1="1218.5" y1="-202.8" x2="1239.6" y2="-202.8"/>
	<line fill="none" stroke="#FACA17" stroke-width="6" stroke-miterlimit="10" x1="1267.1" y1="-229.9" x2="1267.1" y2="-191.2"/>
	<line fill="none" stroke="#FACA17" stroke-width="6" stroke-miterlimit="10" x1="1256.7" y1="-216" x2="1277.5" y2="-216"/>
	<line fill="none" stroke="#FACA17" stroke-width="6" stroke-miterlimit="10" x1="1256.7" y1="-202.8" x2="1277.5" y2="-202.8"/>
</g>
<path fill="#F1F2F2" d="M1603.2-152.7h-117.4c-1.7,0-3-1.4-3-3v-65.2c0-1.7,1.3-3,3-3h117.4c1.7,0,3,1.4,3,3v65.2
	C1606.2-154,1604.8-152.7,1603.2-152.7z"/>
<circle fill="#F1F2F2" stroke="#FACA17" stroke-width="9" stroke-miterlimit="10" cx="1544.5" cy="-188.3" r="26.9"/>
<path fill="#FACA17" d="M1599.1-207.1h-15.8c-1.5,0-2.8-1.3-2.8-2.8v-7.2c0-1.5,1.3-2.8,2.8-2.8h15.8c1.5,0,2.8,1.3,2.8,2.8v7.2
	C1601.9-208.3,1600.6-207.1,1599.1-207.1z"/>
<path fill="#F1F2F2" d="M1522.6-239.5h-23.9c-1.6,0-2.8,1.3-2.8,2.8v4.7c0,1.6,1.3,2.8,2.8,2.8h23.9c1.6,0,2.8-1.3,2.8-2.8v-4.7
	C1525.5-238.2,1524.2-239.5,1522.6-239.5z"/>
<polyline fill="none" stroke="#F1F2F2" stroke-width="12" stroke-linecap="round" stroke-linejoin="round" stroke-miterlimit="10" points="
	1617,86.4 1612.1,86.4 1472.2,86.4 "/>
<line fill="none" stroke="#F1F2F2" stroke-width="12" stroke-linecap="round" stroke-linejoin="round" stroke-miterlimit="10" x1="1583.3" y1="25.2" x2="1506" y2="147.6"/>
<line fill="none" stroke="#F1F2F2" stroke-width="12" stroke-linecap="round" stroke-linejoin="round" stroke-miterlimit="10" x1="1586.6" y1="145.2" x2="1502.4" y2="27.5"/>
<polyline fill="none" stroke="#F1F2F2" stroke-width="9" stroke-linecap="round" stroke-linejoin="round" stroke-miterlimit="10" points="
	1536,74.6 1553.9,71.6 1569.4,87.8 1561.9,110.7 1527.9,112.9 1512.3,86.4 1524.5,58.4 1564.6,54.7 1595.8,86.4 1575,129 
	1515.8,132 1491.8,86.4 1514.7,44.7 1574.5,39 1619.3,86.4 1587.6,147.6 1503.9,150.4 1470.2,86.4 1500.4,25.5 1585.3,24.2 "/>
<rect x="1192.8" y="53.5" fill="none" stroke="#F1F2F2" stroke-width="9" stroke-linecap="round" stroke-linejoin="round" stroke-miterlimit="10" width="110.7" height="77.6"/>
<line fill="none" stroke="#F1F2F2" stroke-width="9" stroke-linecap="round" stroke-linejoin="round" stroke-miterlimit="10" x1="1248.1" y1="132.8" x2="1248.1" y2="160.8"/>
<line fill="none" stroke="#F1F2F2" stroke-width="9" stroke-linecap="round" stroke-linejoin="round" stroke-miterlimit="10" x1="1248.1" y1="132.8" x2="1225.2" y2="155.7"/>
<line fill="none" stroke="#F1F2F2" stroke-width="9" stroke-linecap="round" stroke-linejoin="round" stroke-miterlimit="10" x1="1248.1" y1="132.8" x2="1270.4" y2="155"/>
<path fill="none" stroke="#F1F2F2" stroke-width="9" stroke-linecap="round" stroke-linejoin="round" stroke-miterlimit="10" d="
	M1300.4,52.9h-104.7c-5.6,0-10.1-4.5-10.1-10.1v0c0-5.6,4.5-10.1,10.1-10.1h104.7c5.6,0,10.1,4.5,10.1,10.1v0
	C1310.5,48.3,1306,52.9,1300.4,52.9z"/>
<rect x="1208.1" y="87.3" fill="#F1F2F2" width="17.3" height="29.8"/>
<rect x="1239.4" y="70" fill="#F1F2F2" width="17.3" height="47.2"/>
<rect x="1270.4" y="78.7" fill="#F1F2F2" width="17.3" height="37.2"/>
<path fill="#F1F2F2" d="M981.7,37.5c0,0-5.4-25.8-31.4-15.2c-26,10.6-20.9,27.3-20.9,27.3s-15.2-10.3-21.9,6.9s6.1,16.9,6.1,16.9
	s-4.9,4.4-3.9,12c1,7.6,14.7,16.2,20.9,11.3c0,0-0.5,18.9,26.8,17.2c10.3-0.7,12.3-7.6,12.3-7.6s7.6,10.3,17.2,6.4
	s6.9-13.3,6.9-13.3s7.1,4.4,8.8,2.2c1.7-2.2,2-3.9,1-6.6c0,0,15.7,9.8,21.9-0.5c6.1-10.3,7.4-18.7-0.2-23.3c0,0,7.1-5.4,1-10.8
	c-1.5-1.7-3.9-0.7-3.9-0.7s9.8-6.6,3.7-14.7s-13.3-7.1-16.7-3.7c0,0,3.2-12.5-6.6-15C988.1,22.5,985.4,33.3,981.7,37.5z"/>
<path fill="#F1F2F2" d="M926.2,115.3c0,0-2.2-9.7-9.1-4.7c-6.9,5-2.2,8.6-2.2,8.6s-8.9-0.8-7.8,5.3c1.1,6.1,3.6,4.4,3.6,4.4
	s-2.2,2.8,0.8,3.6s2.8-1.1,2.8-1.1s1.1,4.7,4.7,4.7c3.6,0,4.7-3.3,4.7-4.4c0,0,10.5,0,7.5-4.7c-3-4.7-3.6-2.8-3.6-2.8
	s6.4-0.8,6.4-3.6c0-2.8-0.6-4.7-3-4.7s-2.5,0-2.5,0S929,112.2,926.2,115.3z"/>
<path fill="#F1F2F2" d="M936.4,150.9c0,0,1.7,5.2,5.2,2.1c3.5-3.1,0.8-4.8,0.8-4.8s4.9,0,4-3.3c-0.9-3.3-2.2-2.2-2.2-2.2
	s1.1-1.6-0.6-1.9s-1.5,0.7-1.5,0.7s-0.8-2.5-2.8-2.3s-2.4,2-2.4,2.6c0,0-5.8,0.5-3.9,2.9s2.1,1.3,2.1,1.3s-3.4,0.8-3.3,2.3
	c0.1,1.5,0.5,2.5,1.9,2.4s1.4-0.1,1.4-0.1S935,152.7,936.4,150.9z"/>
<g>
	<defs>
		<circle id="SVGID_1_" cx="113.9" cy="86.4" r="86.4"/>
	</defs>
	<clipPath id="SVGID_2_">
		<use xlink:href="#SVGID_1_"  overflow="visible"/>
	</clipPath>
	<circle clip-path="url(#SVGID_2_)" fill="#FACA17" cx="113.9" cy="86.4" r="86.4"/>
	
		<polygon clip-path="url(#SVGID_2_)" fill="none" stroke="#F1F2F2" stroke-width="9" stroke-linecap="round" stroke-linejoin="round" stroke-miterlimit="10" points="
		68.8,32.7 63.8,74.9 130.7,106.1 125.3,32.7 	"/>
	
		<path clip-path="url(#SVGID_2_)" fill="none" stroke="#F1F2F2" stroke-width="9" stroke-linecap="round" stroke-linejoin="round" stroke-miterlimit="10" d="
		M68.8,32.7l61.9,73.4c0,0,12.2,15.8,25.8,5.4s8.1-28.5,27.1-21.2c19,7.2,13.6,30.3,0,33s-28,16.7-22.1,28.5
		c5.9,11.8-10.8,21-10.8,21"/>
	
		<line clip-path="url(#SVGID_2_)" fill="none" stroke="#F1F2F2" stroke-width="9" stroke-linecap="round" stroke-linejoin="round" stroke-miterlimit="10" x1="125.3" y1="32.7" x2="63.8" y2="74.9"/>
	
		<path clip-path="url(#SVGID_2_)" fill="none" stroke="#F1F2F2" stroke-width="9" stroke-linecap="round" stroke-linejoin="round" stroke-miterlimit="10" d="
		M89.6,61.3c0,0,13.5,49.5-42.9,79.2"/>
	
		<polygon clip-path="url(#SVGID_2_)" fill="#F1F2F2" stroke="#F1F2F2" stroke-width="4" stroke-linecap="round" stroke-linejoin="round" stroke-miterlimit="10" points="
		198.3,81.1 186.8,75.7 186.6,106.1 175.1,100.7 	"/>
	
		<polygon clip-path="url(#SVGID_2_)" fill="#F1F2F2" stroke="#F1F2F2" stroke-width="4" stroke-linecap="round" stroke-linejoin="round" stroke-miterlimit="10" points="
		191.3,137.2 200.6,128.7 172.7,116.8 182.1,108.3 	"/>
	
		<polygon clip-path="url(#SVGID_2_)" fill="#F1F2F2" stroke="#F1F2F2" stroke-width="4" stroke-linecap="round" stroke-linejoin="round" stroke-miterlimit="10" points="
		172.7,147.7 180.8,137.9 151.4,130.1 159.5,120.4 	"/>
	
		<polygon clip-path="url(#SVGID_2_)" fill="#F1F2F2" stroke="#F1F2F2" stroke-width="4" stroke-linecap="round" stroke-linejoin="round" stroke-miterlimit="10" points="
		174.5,161.1 175.1,148.5 147,159.9 147.6,147.2 	"/>
</g>
<line fill="none" stroke="#F1F2F2" stroke-width="23" stroke-linecap="round" stroke-miterlimit="10" x1="443.1" y1="35.9" x2="373.3" y2="129"/>
<polygon fill="#F1F2F2" stroke="#F1F2F2" stroke-width="4" stroke-linecap="round" stroke-linejoin="round" stroke-miterlimit="10" points="
	351.6,108 401.2,108 376.4,141.2 339.4,128.6 "/>
<polygon fill="#F1F2F2" stroke="#F1F2F2" stroke-width="4" stroke-linecap="round" stroke-linejoin="round" stroke-miterlimit="10" points="
	432.1,54.6 346.7,68.9 328.6,88.3 408.3,86.3 "/>
</svg>
