<?xml version="1.0" encoding="utf-8"?>
<!-- Generator: Adobe Illustrator 18.0.0, SVG Export Plug-In . SVG Version: 6.00 Build 0)  -->
<!DOCTYPE svg PUBLIC "-//W3C//DTD SVG 1.1//EN" "http://www.w3.org/Graphics/SVG/1.1/DTD/svg11.dtd">
<svg version="1.1" id="Layer_1" xmlns="http://www.w3.org/2000/svg" xmlns:xlink="http://www.w3.org/1999/xlink" x="0px" y="0px"
	 viewBox="0 0 200 200" enable-background="new 0 0 200 200" xml:space="preserve">
<g display="none">
	<path display="inline" fill="#FFFFFF" d="M112.6,179.1H87.4c-0.9,0-1.7-0.8-1.7-1.7v-2.3c0-0.9,0.8-1.7,1.7-1.7h25.1
		c0.9,0,1.7,0.8,1.7,1.7v2.3C114.2,178.4,113.5,179.1,112.6,179.1z"/>
	<path display="inline" fill="#FFFFFF" d="M101.4,189.1h-2.8c-1.1,0-2.1-0.9-2.1-2.1v-8.3c0-1.1,0.9-2.1,2.1-2.1h2.8
		c1.1,0,2.1,0.9,2.1,2.1v8.3C103.5,188.2,102.6,189.1,101.4,189.1z"/>
</g>
<g>
	<path fill="#FFFFFF" d="M185.3,83.1c-1.1,22.5-30.4,21.4-46.1,19.2c-2.3-3.8-5.2-7.8-9-11.6c-1.9-1.9-4-3.7-6.3-5.2
		c-1.4-0.9-2.8-1.8-4.3-2.5l-3.9,19.8c1.5,1,3,2.3,4.4,3.7c5.6,5.6,8.5,12.4,8.5,20.1c0,7.7-2.9,14.4-8.5,20.1
		c-5.6,5.6-12.4,8.5-20.1,8.5c-7.7,0-14.4-2.9-20.1-8.5c-5.6-5.6-8.5-12.4-8.5-20.1c0-8,2.8-14.9,8.2-20.3c1.4-1.4,2.9-2.6,4.5-3.7
		L79.8,80c-17.8,4.6-17.2,6.8-19.5,8.3c-2.3,1.5,11.5,0.5,9.5,2.4s-3.7,4-5.2,6.3c-1.1,1.6-2.1,3.3-3,5.1
		c-15.5,2.3-45.9,3.9-46.9-19.1c0,0-24.4,29,38.2,33.5c-0.4,0.9-0.7,1.8-1.1,2.8c-0.9,2.7-1.9,5.5-5.4,18.2
		c0,2.9,11.2-10.8,11.8-8.1c0.6,2.8-0.9,10,5.5,27c1.7,4.4,3.8,10.4,5.7,12.3c0.7,0.7,1.5-0.9,2.3-3.2c11.1,39.2,43.5,40,55.8,3
		c9-8.6,8.9-14,10.1-16.8c0.9-2.4,0.8-11.9,1.9-14.4c1.1-2.6,6.1,12.2,6.6,9.5c0.6-2.8,1.3-21,0.1-26.4c0-0.7-0.2-2.1-0.7-3.9
		C210.1,112.6,185.3,83.1,185.3,83.1z"/>
</g>
<g>
	<path fill="#FFFFFF" d="M86.6,112.6c-3.6,3.6-5.4,8.1-5.4,13.4c0,5.1,1.9,9.5,5.6,13.3c3.7,3.7,8.2,5.6,13.3,5.6
		c5.1,0,9.5-1.9,13.3-5.6c3.7-3.7,5.6-8.2,5.6-13.3c0-5.1-1.9-9.5-5.6-13.3c-3.7-3.7-8.2-5.6-13.3-5.6
		C94.7,107.2,90.2,109,86.6,112.6z"/>
</g>
<g>
	<path fill="#FFFFFF" d="M90.9,90.7c0.4,2.7,2.3,4.9,5,5.7c1.4,0.4,2.8,0.7,4.2,0.7c1.4,0,2.8-0.3,4.3-0.8c2.7-1,4.5-3.1,4.7-5.8
		l13-65.6c1-4.9-0.4-9.8-4.2-14.5C114,5.5,108.1,3,100,3c-8.4,0-14.5,2.5-18.2,7.3C78.2,15,77,20,78.1,24.9L90.9,90.7z"/>
</g>
</svg>
