<?xml version="1.0" encoding="utf-8"?>
<!-- Generator: Adobe Illustrator 18.0.0, SVG Export Plug-In . SVG Version: 6.00 Build 0)  -->
<!DOCTYPE svg PUBLIC "-//W3C//DTD SVG 1.1//EN" "http://www.w3.org/Graphics/SVG/1.1/DTD/svg11.dtd">
<svg version="1.1" id="Layer_1" xmlns="http://www.w3.org/2000/svg" xmlns:xlink="http://www.w3.org/1999/xlink" x="0px" y="0px"
	 viewBox="0 0 230.5 172.7" enable-background="new 0 0 230.5 172.7" xml:space="preserve">
<g>
	<path fill="#FFFFFF" d="M-1772.7,426.4l11.9-12.2l-4.7,2c4.7-2,12.1-19.6,12.1-19.6h-5.4c4-5.4,14.2-26.3,14.2-26.3
		c-2,0.7-10.1,2-10.1,2c10.1-6.7,20.2-25.6,20.2-25.6s4.7,12.8,8.8,14.2s-4,2-4,2l5.2,7.4l4.9-7.4c0,0,5.4,13.5,10.1,15.5l-7.4-0.7
		l7.4,12.8l-3.9-1l9.7,11.2l-5.5,0.7l3.5,6.2"/>
	<path d="M-1772.7,426.4l5.8-6.3l5.8-6.2l0.5,0.7l-4.7,2.1l-0.4-1c0.4-0.2,0.7-0.4,1-0.7c0.3-0.3,0.7-0.6,1-1
		c0.6-0.7,1.2-1.5,1.7-2.3c1-1.6,2-3.3,2.9-5c1.8-3.4,3.4-6.9,4.9-10.5l0.9,1.4l-5.4,0.1l-2.1,0l1.2-1.7c1.4-1.9,2.6-4.1,3.8-6.3
		c1.2-2.2,2.3-4.4,3.4-6.6c2.2-4.4,4.5-8.9,6.6-13.4l1.6,1.9c-0.5,0.2-0.9,0.3-1.4,0.4l-1.3,0.3l-2.6,0.5c-1.7,0.3-3.4,0.6-5.1,0.9
		l-5.9,1l4.9-3.6l1.6-1.2c0.5-0.4,1-0.9,1.5-1.3c0.5-0.4,1-0.9,1.4-1.4c0.5-0.5,0.9-0.9,1.4-1.4l1.3-1.5l1.3-1.5
		c0.4-0.5,0.8-1.1,1.3-1.6c0.4-0.5,0.8-1.1,1.2-1.6c1.6-2.2,3.1-4.4,4.6-6.7c0.7-1.1,1.4-2.3,2.1-3.5c0.7-1.2,1.4-2.3,2-3.5l1.6-2.9
		l1.1,3.1c0.3,0.9,0.7,1.8,1.1,2.7c0.4,0.9,0.8,1.8,1.2,2.7c0.4,0.9,0.8,1.7,1.3,2.6c0.5,0.8,0.9,1.7,1.5,2.4
		c0.3,0.4,0.5,0.8,0.8,1.1c0.3,0.4,0.6,0.7,0.9,1c0.1,0.2,0.3,0.3,0.4,0.4c0.1,0.1,0.3,0.3,0.4,0.3c0.1,0,0.1,0.1,0.2,0.1l0.1,0.1
		l0.2,0.1l0.2,0.1l0.3,0.1c0.2,0.1,0.3,0.2,0.5,0.3c0.1,0.1,0.2,0.2,0.3,0.3c0.1,0.1,0.2,0.2,0.2,0.2l0.1,0.1c0,0.1,0.1,0.2,0.1,0.2
		c0.1,0.2,0.1,0.3,0.2,0.6c0,0.2,0,0.5-0.1,0.7c-0.1,0.2-0.1,0.3-0.3,0.5c-0.1,0.1-0.1,0.2-0.2,0.3c-0.3,0.3-0.5,0.4-0.7,0.5
		c-0.2,0.1-0.3,0.1-0.5,0.2c-0.6,0.2-1.1,0.3-1.7,0.4c-1.1,0.2-2,0.3-3.1,0.4l1.1-2.2l5.1,7.5l-2.3,0l5-7.4l1.4-2l0.9,2.3
		c0.6,1.4,1.2,2.8,1.9,4.2c0.7,1.4,1.4,2.8,2.1,4.1c0.4,0.7,0.8,1.3,1.2,2c0.2,0.3,0.4,0.6,0.6,0.9c0.2,0.3,0.4,0.6,0.6,0.9l0.7,0.9
		l0.7,0.8c0.2,0.3,0.5,0.4,0.8,0.7c0.3,0.2,0.5,0.3,0.8,0.5l3.7,2.5l-4.2-0.4l-7.4-0.8l1-1.5l7.2,12.9l0.9,1.6l-1.8-0.5l-3.9-1.1
		l0.7-1.1l9.5,11.5l0.4,0.5l-0.6,0.1l-5.5,0.6l0.2-0.3l3.4,6.3l-3.7-6.1l-0.2-0.3l0.3-0.1l5.5-0.9l-0.2,0.6l-10-11l-1.5-1.6l2.2,0.5
		l3.9,0.9l-0.9,1.1l-7.6-12.7l-1-1.7l2,0.2l7.4,0.6l-0.5,2.1c-0.4-0.2-0.9-0.4-1.2-0.7c-0.3-0.3-0.7-0.5-1-0.8l-0.9-0.9l-0.8-1
		c-0.3-0.3-0.5-0.7-0.7-1c-0.2-0.3-0.5-0.7-0.7-1c-0.5-0.7-0.9-1.4-1.3-2c-0.8-1.4-1.6-2.8-2.3-4.2c-0.7-1.4-1.4-2.9-2-4.4l2.3,0.2
		l-4.9,7.5l-1.1,1.7l-1.2-1.6l-5.2-7.4l-1.4-2l2.5-0.2c0.9-0.1,1.9-0.2,2.8-0.4c0.4-0.1,0.9-0.2,1.2-0.3c0.1,0,0.1-0.1,0.2-0.1
		c0,0,0.1,0-0.1,0.1c0,0-0.1,0.1-0.1,0.1c-0.1,0.1-0.1,0.2-0.2,0.3c0,0.1-0.1,0.3-0.1,0.5c0,0.2,0,0.3,0.1,0.4
		c0,0.1,0.1,0.1,0.1,0.1l0,0.1c0,0,0.1,0.1,0.1,0.1c0,0,0,0,0,0c-0.1-0.1-0.6-0.2-1.3-0.6c-0.3-0.2-0.6-0.4-0.8-0.5
		c-0.2-0.2-0.5-0.4-0.7-0.6c-0.4-0.4-0.8-0.8-1.1-1.3c-0.4-0.4-0.7-0.9-0.9-1.3c-0.6-0.9-1.1-1.8-1.6-2.7c-0.5-0.9-1-1.8-1.4-2.7
		c-0.4-0.9-0.9-1.8-1.3-2.8c-0.4-0.9-0.8-1.9-1.1-2.8l2.7,0.2c-0.7,1.2-1.4,2.4-2.1,3.6c-0.7,1.2-1.4,2.4-2.2,3.5
		c-1.5,2.3-3.1,4.6-4.7,6.9c-0.4,0.6-0.8,1.1-1.3,1.7c-0.4,0.5-0.8,1.1-1.3,1.6l-1.4,1.6l-1.4,1.6c-0.5,0.5-1,1-1.5,1.5
		c-0.5,0.5-1,1-1.5,1.5c-0.5,0.5-1.1,1-1.6,1.4l-1.8,1.3l-1-2.6c1.7-0.3,3.4-0.6,5.1-0.9l2.5-0.5l1.2-0.3c0.4-0.1,0.8-0.2,1.1-0.3
		l3-0.9l-1.4,2.8c-2.2,4.5-4.5,8.9-6.8,13.3c-1.2,2.2-2.4,4.4-3.6,6.6c-0.6,1.1-1.3,2.2-1.9,3.2c-0.3,0.5-0.7,1.1-1,1.6
		c-0.3,0.5-0.7,1.1-1.1,1.6l-0.9-1.7l5.4,0.1l1.5,0l-0.6,1.4c-1.6,3.6-3.4,7.1-5.3,10.5c-1,1.7-2,3.4-3.2,5
		c-0.6,0.8-1.2,1.6-1.9,2.3c-0.3,0.4-0.7,0.7-1.1,1.1c-0.4,0.3-0.9,0.6-1.4,0.9l-0.4-1l4.8-1.9l2.1-0.8l-1.6,1.5l-6.1,6
		L-1772.7,426.4z"/>
</g>
<g>
	<path fill="#FFFFFF" d="M-1789.6,431.7c0,0,247-82.8,450-64.4c3.1,0.3,17.1-44.3,17.1-44.3c1,0.3,13.2,8.6,13.2,8.6l19.5-30.5
		c4.6,0.7,26.1,45.2,26.1,45.2l11.3-11.9c0,0,17.4,52.9,28.8,57c27.7,10.1,49.4,22.4,70.5,40.1"/>
	<path d="M-1789.6,431.7c9.9-3.5,19.9-6.7,30-9.8c10.1-3.1,20.1-6.1,30.3-9c5.1-1.5,10.1-2.8,15.2-4.3l15.3-4.1
		c10.2-2.7,20.4-5.2,30.6-7.7c10.2-2.5,20.5-4.8,30.8-7.1c5.2-1.1,10.3-2.2,15.5-3.3l15.5-3.1l15.5-2.9l15.6-2.8
		c5.2-0.9,10.4-1.7,15.6-2.5l7.8-1.2l7.8-1.1c5.2-0.8,10.4-1.5,15.7-2.2c5.2-0.7,10.5-1.4,15.7-2l15.7-1.8l15.8-1.5
		c5.2-0.5,10.5-0.9,15.8-1.3l7.9-0.6c2.6-0.2,5.3-0.3,7.9-0.4l7.9-0.4c2.6-0.1,5.3-0.3,7.9-0.4l15.8-0.5c10.6-0.1,21.1-0.2,31.7,0.1
		l7.9,0.2l7.9,0.4l7.9,0.4l4,0.2l4,0.3l7.9,0.6l4,0.3l2,0.2l1,0.1l0.5,0c-0.2,0,0.7,0-0.5,0l0.1,0c0.1,0-0.4,0-0.6,0.1
		c-0.2,0-0.6,0.3-0.5,0.3c-0.4,0.3-0.1,0.1-0.1,0c0.1-0.1,0.3-0.4,0.4-0.6c0.3-0.5,0.6-1,0.8-1.6c0.5-1.1,1.1-2.3,1.5-3.5
		c1-2.4,1.9-4.8,2.8-7.2c3.6-9.8,7-19.7,10.2-29.7l0.9-2.7l2.5,0.9c0.2,0.1,0.4,0.2,0.6,0.2l0.3,0.1l0.1,0.1l0.5,0.3l0.9,0.6
		l1.7,1.1l3.3,2.2l6.6,4.5l-3.8,0.8l19.7-30.4l0.9-1.4l1.6,0.3c0.2,0,0.5,0.1,0.7,0.2c0.2,0.1,0.3,0.1,0.5,0.2
		c0.3,0.2,0.5,0.3,0.7,0.4c0.4,0.3,0.6,0.5,0.9,0.8c0.5,0.5,0.9,1,1.3,1.4c0.7,0.9,1.4,1.9,2,2.8c1.3,1.9,2.4,3.8,3.5,5.7
		c2.2,3.8,4.3,7.7,6.4,11.6c4.1,7.8,8,15.6,11.8,23.6l-3.4-0.5l11.4-11.8l2.3-2.4l1,3.1c1.9,5.7,3.9,11.5,6,17.2
		c2.1,5.7,4.4,11.3,6.8,16.9c1.2,2.8,2.5,5.5,3.9,8.2c1.4,2.7,2.8,5.3,4.4,7.8c0.8,1.2,1.7,2.4,2.6,3.5c0.9,1.1,2,2.1,3.1,2.7
		c0.5,0.3,1.3,0.6,2,0.8l2.1,0.8c1.4,0.5,2.8,1.1,4.3,1.7c1.4,0.6,2.8,1.2,4.2,1.8c1.4,0.6,2.8,1.2,4.2,1.9c2.8,1.3,5.5,2.6,8.3,3.9
		l4.1,2.1l4,2.2c2.7,1.5,5.3,3,7.9,4.6c2.6,1.6,5.2,3.2,7.7,4.9c1.3,0.8,2.5,1.7,3.8,2.6c1.2,0.9,2.5,1.8,3.7,2.7
		c2.5,1.8,4.9,3.7,7.2,5.6l3.5,2.9l3.5,3l-3.6-2.8l-3.6-2.8c-2.4-1.8-4.9-3.6-7.4-5.3c-1.2-0.9-2.5-1.7-3.8-2.5
		c-1.3-0.8-2.5-1.7-3.8-2.5c-2.6-1.6-5.2-3.2-7.8-4.7c-2.6-1.5-5.3-3-8-4.4l-4.1-2.1l-4.1-2c-2.8-1.3-5.5-2.5-8.3-3.7
		c-1.4-0.6-2.8-1.2-4.2-1.7c-1.4-0.6-2.8-1.1-4.2-1.7c-1.4-0.5-2.8-1.1-4.3-1.6l-2.2-0.8c-0.7-0.3-1.4-0.4-2.2-0.9
		c-0.4-0.2-0.8-0.4-1.1-0.7c-0.4-0.2-0.7-0.5-1-0.8l-0.9-0.8l-0.8-0.9c-1.1-1.2-2-2.4-2.9-3.7c-3.6-5.1-6.3-10.7-8.9-16.2
		c-2.6-5.6-5-11.2-7.2-16.9c-2.3-5.7-4.4-11.4-6.4-17.2l3.3,0.7l-11.2,12l-2.1,2.2l-1.4-2.8c-3.9-7.8-7.9-15.6-12-23.2
		c-2.1-3.8-4.2-7.6-6.4-11.3c-1.1-1.8-2.2-3.7-3.4-5.4c-0.6-0.9-1.2-1.7-1.8-2.5c-0.3-0.4-0.6-0.7-0.9-1c-0.1-0.1-0.3-0.2-0.3-0.3
		c0,0-0.1-0.1,0,0c0,0,0,0,0.1,0c0.1,0,0.2,0.1,0.3,0.1l2.5-1.1l-19.4,30.6l-1.5,2.3l-2.3-1.5l-6.5-4.4l-3.3-2.1l-1.6-1l-0.8-0.5
		l-0.3-0.2l-0.1,0c0,0,0,0,0,0c0,0,0.1,0,0.1,0l3.4-1.8c-3.2,10.1-6.4,20.1-10,30.1c-0.9,2.5-1.9,5-2.9,7.5
		c-0.5,1.2-1.1,2.5-1.7,3.8c-0.3,0.6-0.6,1.3-1,1.9c-0.2,0.3-0.4,0.7-0.7,1.1c-0.3,0.4-0.5,0.8-1.4,1.4c0,0-0.5,0.3-0.7,0.4
		c-0.2,0.1-0.8,0.2-0.8,0.2l-0.1,0c-1.2,0-0.4,0-0.7,0l-0.5,0l-1-0.1l-2-0.1l-3.9-0.3l-7.8-0.6l-3.9-0.3l-3.9-0.2l-7.8-0.3l-7.8-0.3
		l-7.9-0.1c-10.5-0.3-21-0.1-31.4,0l-15.7,0.5c-2.6,0.1-5.2,0.2-7.9,0.3l-7.9,0.4c-2.6,0.1-5.2,0.2-7.9,0.4l-7.8,0.6
		c-5.2,0.4-10.5,0.7-15.7,1.2l-15.7,1.4l-15.7,1.6c-5.2,0.6-10.4,1.2-15.6,1.8c-5.2,0.6-10.4,1.3-15.6,2l-7.8,1.1l-7.8,1.2
		c-5.2,0.8-10.4,1.5-15.6,2.4l-15.5,2.5l-15.5,2.7l-15.5,2.9c-5.2,1-10.3,2-15.5,3c-10.3,2.1-20.6,4.2-30.9,6.4
		c-10.3,2.2-20.5,4.6-30.7,7l-15.3,3.7c-5.1,1.3-10.2,2.5-15.3,3.8c-10.2,2.6-20.3,5.3-30.5,8.1
		C-1769.4,425.8-1779.5,428.6-1789.6,431.7z"/>
</g>
<circle fill="#FACA17" cx="-459.1" cy="86.4" r="86.4"/>
<circle fill="#FACA17" cx="-164.7" cy="86.4" r="86.4"/>
<circle fill="#FACA17" cx="115.3" cy="86.4" r="86.4"/>
<circle fill="#FACA17" cx="394.6" cy="86.4" r="86.4"/>
<circle fill="#FACA17" cx="675.1" cy="86.4" r="86.4"/>
<circle fill="#FACA17" cx="971.5" cy="86.4" r="86.4"/>
<circle fill="#FACA17" cx="971.5" cy="365.9" r="86.4"/>
<circle fill="#FACA17" cx="675.1" cy="365.9" r="86.4"/>
<circle fill="#FACA17" cx="391.9" cy="365.9" r="86.4"/>
<circle fill="#FACA17" cx="115.3" cy="365.9" r="86.4"/>
<circle fill="#FACA17" cx="-164.7" cy="365.9" r="86.4"/>
<circle fill="#FACA17" cx="-459.1" cy="365.9" r="86.4"/>
<g>
	
		<polyline fill="#FACA17" stroke="#F1F2F2" stroke-width="18" stroke-linecap="round" stroke-linejoin="round" stroke-miterlimit="10" points="
		-435.7,45.1 -504.1,87.1 -435.7,125.7 	"/>
	
		<circle fill="#FACA17" stroke="#F1F2F2" stroke-width="18" stroke-linecap="round" stroke-linejoin="round" stroke-miterlimit="10" cx="-435.7" cy="45.1" r="14.9"/>
	
		<circle fill="#FACA17" stroke="#F1F2F2" stroke-width="18" stroke-linecap="round" stroke-linejoin="round" stroke-miterlimit="10" cx="-504.1" cy="88.9" r="14.9"/>
	
		<circle fill="#FACA17" stroke="#F1F2F2" stroke-width="18" stroke-linecap="round" stroke-linejoin="round" stroke-miterlimit="10" cx="-435.7" cy="125.7" r="14.9"/>
</g>
<polyline fill="#F1F2F2" stroke="#F1F2F2" stroke-width="18" stroke-linecap="round" stroke-linejoin="round" stroke-miterlimit="10" points="
	-162.8,38.2 -141.9,38.2 -123.5,57.2 -123.5,118.8 -110.4,118.8 -110.4,123.8 -127.9,123.8 -128.7,139.5 -136.6,139.5 -136.6,124.7 
	-162.8,124.7 -166.6,124.7 -192.8,124.7 -192.8,139.5 -200.6,139.5 -201.4,123.8 -219,123.8 -219,118.8 -205.8,118.8 -205.8,57.2 
	-187.4,38.2 -166.6,38.2 "/>
<line fill="#F1F2F2" stroke="#FACA17" stroke-width="9" stroke-linecap="round" stroke-linejoin="round" stroke-miterlimit="10" x1="-187.5" y1="48.4" x2="-141.8" y2="48.4"/>
<path fill="#F1F2F2" stroke="#FACA17" stroke-width="9" stroke-linecap="round" stroke-linejoin="round" stroke-miterlimit="10" d="
	M-164.7,86.4h35.8c0-12-6-24.6-6-24.6s-29.8,0-29.8,0h-29.8c0,0-6,12.6-6,24.6C-200.5,86.4-164.7,86.4-164.7,86.4z"/>
<circle fill="#FACA17" cx="-200.5" cy="112.2" r="7"/>
<circle fill="#FACA17" cx="-128.8" cy="112.2" r="7"/>
<circle fill="none" stroke="#F1F2F2" stroke-width="18" stroke-miterlimit="10" cx="115.3" cy="86.4" r="42"/>
<path fill="none" stroke="#F1F2F2" stroke-width="9" stroke-miterlimit="10" d="M139.2,54.8c0,0,113.4-16.1-20,50.6
	c-117.6,58.8-46-12.6-46-12.6"/>
<path fill="none" stroke="#F1F2F2" stroke-width="18" stroke-miterlimit="10" d="M435,114.7h-80.9c-6.6,0-12-5.4-12-12v-55
	c0-6.6,5.4-12,12-12H435c6.6,0,12,5.4,12,12v55C447,109.3,441.6,114.7,435,114.7z"/>
<line fill="none" stroke="#F1F2F2" stroke-width="18" stroke-linecap="round" stroke-miterlimit="10" x1="345.6" y1="139.1" x2="443.5" y2="139.1"/>
<path fill="none" stroke="#F1F2F2" stroke-width="6" stroke-miterlimit="10" d="M404.3,100.4h-19.5c-3.5,0-6.3-2.9-6.3-6.3V59.4
	c0-3.5,2.9-6.3,6.3-6.3h19.5c3.5,0,6.3,2.9,6.3,6.3v34.7C410.7,97.6,407.8,100.4,404.3,100.4z"/>
<circle fill="#F1F2F2" cx="394.6" cy="92.9" r="3.1"/>
<path fill="#F1F2F2" d="M405.2,88.4h-20.7c-0.4,0-0.8-0.3-0.8-0.8V58.8c0-0.4,0.3-0.8,0.8-0.8h20.7c0.4,0,0.8,0.3,0.8,0.8v28.8
	C406,88,405.6,88.4,405.2,88.4z"/>
<g>
	<path fill="#F1F2F2" d="M709.1,150h-68c-3.3,0-5.9-2.6-5.9-5.9V33.4c0-3.3,2.6-5.9,5.9-5.9h68c3.3,0,5.9,2.6,5.9,5.9v110.7
		C715,147.4,712.3,150,709.1,150z"/>
	<path fill="#F1F2F2" d="M702.1,39.3h-53.8c-3.3,0-5.9-2.6-5.9-5.9v-5.9c0-3.3,2.6-5.9,5.9-5.9h53.8c3.3,0,5.9,2.6,5.9,5.9v5.9
		C708,36.6,705.4,39.3,702.1,39.3z"/>
	<path fill="#F1F2F2" d="M714.7,152.7h-78.9c-3.3,0-5.9-2.6-5.9-5.9v-5.9c0-3.3,2.6-5.9,5.9-5.9h78.9c3.3,0,5.9,2.6,5.9,5.9v5.9
		C720.6,150.1,718,152.7,714.7,152.7z"/>
	
		<polygon fill="#F1F2F2" stroke="#F1F2F2" stroke-width="4" stroke-linecap="round" stroke-linejoin="round" stroke-miterlimit="10" points="
		676.3,12.6 658.6,24.4 694.1,24.4 	"/>
	
		<path fill="#F1F2F2" stroke="#F1F2F2" stroke-width="4" stroke-linecap="round" stroke-linejoin="round" stroke-miterlimit="10" d="
		M676.2,28.4L676.2,28.4c-2.8,0-5.2-2.3-5.2-5.2v-9.5c0-2.8,2.3-5.2,5.2-5.2l0,0c2.8,0,5.2,2.3,5.2,5.2v9.5
		C681.4,26.1,679.1,28.4,676.2,28.4z"/>
	
		<line fill="none" stroke="#FACA17" stroke-width="6" stroke-linecap="round" stroke-linejoin="round" stroke-miterlimit="10" x1="675.3" y1="45.4" x2="675.3" y2="137.1"/>
	
		<line fill="none" stroke="#FACA17" stroke-width="6" stroke-linecap="round" stroke-linejoin="round" stroke-miterlimit="10" x1="645.3" y1="35.9" x2="704.9" y2="35.9"/>
	<path fill="none" stroke="#FACA17" stroke-width="6" stroke-miterlimit="10" d="M648.6,88.4h14.9c1.6,0,3-1.3,3-3V52.7
		c0-1.6-1.3-3-3-3h-14.9c-1.6,0-3,1.3-3,3v32.8C645.6,87,647,88.4,648.6,88.4z"/>
	<path fill="none" stroke="#FACA17" stroke-width="6" stroke-miterlimit="10" d="M648.4,125.3h14.9c1.6,0,3-1.3,3-3v-21.9
		c0-1.6-1.3-3-3-3h-14.9c-1.6,0-3,1.3-3,3v21.9C645.5,124,646.8,125.3,648.4,125.3z"/>
	<path fill="none" stroke="#FACA17" stroke-width="6" stroke-miterlimit="10" d="M686.7,88.4h14.9c1.6,0,3-1.3,3-3V52.7
		c0-1.6-1.3-3-3-3h-14.9c-1.6,0-3,1.3-3,3v32.8C683.7,87,685,88.4,686.7,88.4z"/>
	<line fill="none" stroke="#FACA17" stroke-width="6" stroke-miterlimit="10" x1="656" y1="49.7" x2="656" y2="88.8"/>
	<line fill="none" stroke="#FACA17" stroke-width="6" stroke-miterlimit="10" x1="645.3" y1="63.6" x2="666.5" y2="63.6"/>
	<line fill="none" stroke="#FACA17" stroke-width="6" stroke-miterlimit="10" x1="645.5" y1="76.7" x2="666.6" y2="76.7"/>
	<line fill="none" stroke="#FACA17" stroke-width="6" stroke-miterlimit="10" x1="694.1" y1="49.7" x2="694.1" y2="88.4"/>
	<line fill="none" stroke="#FACA17" stroke-width="6" stroke-miterlimit="10" x1="683.7" y1="63.6" x2="704.5" y2="63.6"/>
	<line fill="none" stroke="#FACA17" stroke-width="6" stroke-miterlimit="10" x1="683.7" y1="76.7" x2="704.5" y2="76.7"/>
</g>
</svg>
