<?xml version="1.0" encoding="utf-8"?>
<!-- Generator: Adobe Illustrator 18.0.0, SVG Export Plug-In . SVG Version: 6.00 Build 0)  -->
<!DOCTYPE svg PUBLIC "-//W3C//DTD SVG 1.1//EN" "http://www.w3.org/Graphics/SVG/1.1/DTD/svg11.dtd">
<svg version="1.1" id="Layer_1" xmlns="http://www.w3.org/2000/svg" xmlns:xlink="http://www.w3.org/1999/xlink" x="0px" y="0px"
	 viewBox="0 0 200 200" enable-background="new 0 0 200 200" xml:space="preserve">
<path d="M67.8,130.9c0,81.5,64.4,81,64.4,0"/>
<path d="M70.5,113.2c-84.5,0-55.8-34.1-55.8-34.1c1.5,30.8,55.8,17.4,55.8,17.4V113.2z"/>
<path d="M129.5,113.2c84.5,0,55.8-34.1,55.8-34.1c-1.5,30.8-55.8,17.4-55.8,17.4V113.2z"/>
<g display="none">
	<path display="inline" fill="#FFFFFF" d="M112.6,179.1H87.4c-0.9,0-1.7-0.8-1.7-1.7v-2.3c0-0.9,0.8-1.7,1.7-1.7h25.1
		c0.9,0,1.7,0.8,1.7,1.7v2.3C114.2,178.4,113.5,179.1,112.6,179.1z"/>
	<path display="inline" fill="#FFFFFF" d="M101.4,189.1h-2.8c-1.1,0-2.1-0.9-2.1-2.1v-8.3c0-1.1,0.9-2.1,2.1-2.1h2.8
		c1.1,0,2.1,0.9,2.1,2.1v8.3C103.5,188.2,102.6,189.1,101.4,189.1z"/>
</g>
<path d="M146,116.6c1.3,5.4,0.5,23.6-0.1,26.4c-0.6,2.8-5.5-12-6.6-9.5s-1,12-1.9,14.4c-1.4,3.3-0.9,10.5-16.5,22.1
	c-2.2,1.6-6.1-20.1-8.9-19.5s-16,21.3-18.8,20.8c-2.8-0.6-15-17.5-17.2-19c-2.3-1.5-4.8,14.5-6.8,12.5c-1.9-1.9-4-7.9-5.7-12.3
	c-6.5-17.1-4.9-24.3-5.5-27s-11.8,11-11.8,8.1c3.5-12.7,4.5-15.5,5.4-18.2c2.9-8.8,7.7-12.5,8.8-15.1s2.4-5,3.9-7.3
	c1.5-2.3,3.3-4.4,5.2-6.3c1.9-1.9-11.8-0.9-9.5-2.4s1.7-3.8,20.2-8.5c3.2-0.8,8.4-2,19.6-1.6c2.9,0,5.8,0.3,8.6,0.9
	c2.8,0.6,5.5,1.4,8,2.5c2.6,1.1,5,2.4,7.3,3.9c2.3,1.5,4.4,3.3,6.3,5.2C142.3,98.7,146,113.6,146,116.6z"/>
<g>
	<g>
		<path d="M100,141.1c-5.1,0-9.5-1.9-13.3-5.6c-3.7-3.7-5.6-8.2-5.6-13.3c0-5.3,1.8-9.8,5.4-13.4c3.6-3.6,8.1-5.4,13.4-5.4
			c5.1,0,9.5,1.9,13.3,5.6c3.7,3.7,5.6,8.2,5.6,13.3c0,5.1-1.9,9.5-5.6,13.3C109.6,139.2,105.1,141.1,100,141.1z M100,102.3
			c-1.4,0-2.8-0.2-4.2-0.7c-2.7-0.8-4.5-3-5-5.7L78.1,30.2c-1.1-5,0.2-9.9,3.8-14.6c3.7-4.8,9.8-7.3,18.2-7.3c8,0,14,2.5,17.8,7.3
			c3.7,4.8,5.1,9.7,4.2,14.5l-13,65.6c-0.2,2.6-2,4.8-4.7,5.8C102.8,102.1,101.4,102.3,100,102.3z"/>
		<path fill="#FFFFFF" d="M100,13.2c6.4,0,11.1,1.8,13.9,5.4c2.8,3.6,3.9,7.1,3.2,10.5l-13,66c0,0.8-0.5,1.4-1.4,1.7
			c-1,0.3-1.8,0.5-2.6,0.5c-0.9,0-1.8-0.1-2.7-0.4c-0.9-0.3-1.4-0.9-1.5-1.8l-12.9-66c-0.8-3.5,0.2-7,2.9-10.6
			C88.5,15,93.3,13.2,100,13.2 M100,108.3c3.7,0,7,1.4,9.7,4.1c2.8,2.8,4.1,6,4.1,9.7s-1.4,7-4.1,9.7c-2.8,2.8-6,4.1-9.7,4.1
			c-3.7,0-7-1.4-9.7-4.1c-2.8-2.8-4.1-6-4.1-9.7c0-3.9,1.3-7.2,4-9.9C92.8,109.6,96.1,108.3,100,108.3 M100,3.2
			c-10,0-17.5,3.1-22.2,9.3c-5.6,7.4-5.7,14.2-4.7,18.7l12.8,65.6c0.3,1.7,0.9,3.3,1.8,4.7c-1.7,1-3.3,2.2-4.7,3.7
			c-4.5,4.5-6.9,10.4-6.9,17c0,6.4,2.4,12.2,7.1,16.8c4.6,4.6,10.4,7.1,16.8,7.1c6.4,0,12.2-2.4,16.8-7.1c4.6-4.6,7.1-10.4,7.1-16.8
			c0-6.4-2.4-12.2-7.1-16.8c-1.5-1.5-3.1-2.7-4.8-3.7c1-1.5,1.7-3.3,1.9-5.1l12.9-65.4c0.9-4.3,0.7-11.1-5.1-18.6
			C115.8,4.8,106.7,3.2,100,3.2L100,3.2z"/>
	</g>
</g>
</svg>
