<?xml version="1.0" encoding="utf-8"?>
<!-- Generator: Adobe Illustrator 18.0.0, SVG Export Plug-In . SVG Version: 6.00 Build 0)  -->
<!DOCTYPE svg PUBLIC "-//W3C//DTD SVG 1.1//EN" "http://www.w3.org/Graphics/SVG/1.1/DTD/svg11.dtd">
<svg version="1.1" id="Layer_1" xmlns="http://www.w3.org/2000/svg" xmlns:xlink="http://www.w3.org/1999/xlink" x="0px" y="0px"
	 viewBox="0 0 230.5 230.5" enable-background="new 0 0 230.5 230.5" xml:space="preserve">
<g>
	<path fill="#FFFFFF" d="M-2332.6,455.3l11.9-12.2l-4.7,2c4.7-2,12.1-19.6,12.1-19.6h-5.4c4-5.4,14.2-26.3,14.2-26.3
		c-2,0.7-10.1,2-10.1,2c10.1-6.7,20.2-25.6,20.2-25.6s4.7,12.8,8.8,14.2c4,1.3-4,2-4,2l5.2,7.4l4.9-7.4c0,0,5.4,13.5,10.1,15.5
		l-7.4-0.7l7.4,12.8l-3.9-1l9.7,11.2l-5.5,0.7l3.5,6.2"/>
	<path d="M-2332.6,455.3l5.8-6.3l5.8-6.2l0.5,0.7l-4.7,2.1l-0.4-1c0.4-0.2,0.7-0.4,1-0.7c0.3-0.3,0.7-0.6,1-1
		c0.6-0.7,1.2-1.5,1.7-2.3c1-1.6,2-3.3,2.9-5c1.8-3.4,3.4-6.9,4.9-10.5l0.9,1.4l-5.4,0.1l-2.1,0l1.2-1.7c1.4-1.9,2.6-4.1,3.8-6.3
		c1.2-2.2,2.3-4.4,3.4-6.6c2.2-4.4,4.5-8.9,6.6-13.4l1.6,1.9c-0.5,0.2-0.9,0.3-1.4,0.4l-1.3,0.3l-2.6,0.5c-1.7,0.3-3.4,0.6-5.1,0.9
		l-5.9,1l4.9-3.6l1.6-1.2c0.5-0.4,1-0.9,1.5-1.3c0.5-0.4,1-0.9,1.4-1.4c0.5-0.5,0.9-0.9,1.4-1.4l1.3-1.5l1.3-1.5
		c0.4-0.5,0.8-1.1,1.3-1.6c0.4-0.5,0.8-1.1,1.2-1.6c1.6-2.2,3.1-4.4,4.6-6.7c0.7-1.1,1.4-2.3,2.1-3.5c0.7-1.2,1.4-2.3,2-3.5l1.6-2.9
		l1.1,3.1c0.3,0.9,0.7,1.8,1.1,2.7c0.4,0.9,0.8,1.8,1.2,2.7c0.4,0.9,0.8,1.7,1.3,2.6c0.5,0.8,0.9,1.7,1.5,2.4
		c0.3,0.4,0.5,0.8,0.8,1.1c0.3,0.4,0.6,0.7,0.9,1c0.1,0.2,0.3,0.3,0.4,0.4c0.1,0.1,0.3,0.3,0.4,0.3c0.1,0,0.1,0.1,0.2,0.1l0.1,0.1
		l0.2,0.1l0.2,0.1l0.3,0.1c0.2,0.1,0.3,0.2,0.5,0.3c0.1,0.1,0.2,0.2,0.3,0.3c0.1,0.1,0.2,0.2,0.2,0.2l0.1,0.1c0,0.1,0.1,0.2,0.1,0.2
		c0.1,0.2,0.1,0.3,0.2,0.6c0,0.2,0,0.5-0.1,0.7c-0.1,0.2-0.1,0.3-0.3,0.5c-0.1,0.1-0.1,0.2-0.2,0.3c-0.3,0.3-0.5,0.4-0.7,0.5
		c-0.2,0.1-0.3,0.1-0.5,0.2c-0.6,0.2-1.1,0.3-1.7,0.4c-1.1,0.2-2,0.3-3.1,0.4l1.1-2.2l5.1,7.5l-2.3,0l5-7.4l1.4-2l0.9,2.3
		c0.6,1.4,1.2,2.8,1.9,4.2c0.7,1.4,1.4,2.8,2.1,4.1c0.4,0.7,0.8,1.3,1.2,2c0.2,0.3,0.4,0.6,0.6,0.9c0.2,0.3,0.4,0.6,0.6,0.9l0.7,0.9
		l0.7,0.8c0.2,0.3,0.5,0.4,0.8,0.7c0.3,0.2,0.5,0.3,0.8,0.5l3.7,2.5l-4.2-0.4l-7.4-0.8l1-1.5l7.2,12.9l0.9,1.6l-1.8-0.5l-3.9-1.1
		l0.7-1.1l9.5,11.5l0.4,0.5l-0.6,0.1l-5.5,0.6l0.2-0.3l3.4,6.3l-3.7-6.1l-0.2-0.3l0.3-0.1l5.5-0.9l-0.2,0.6l-10-11l-1.5-1.6l2.2,0.5
		l3.9,0.9l-0.9,1.1l-7.6-12.7l-1-1.7l2,0.2l7.4,0.6l-0.5,2.1c-0.4-0.2-0.9-0.4-1.2-0.7c-0.3-0.3-0.7-0.5-1-0.8l-0.9-0.9l-0.8-1
		c-0.3-0.3-0.5-0.7-0.7-1c-0.2-0.3-0.5-0.7-0.7-1c-0.5-0.7-0.9-1.4-1.3-2c-0.8-1.4-1.6-2.8-2.3-4.2c-0.7-1.4-1.4-2.9-2-4.4l2.3,0.2
		l-4.9,7.5l-1.1,1.7l-1.2-1.6l-5.2-7.4l-1.4-2l2.5-0.2c0.9-0.1,1.9-0.2,2.8-0.4c0.4-0.1,0.9-0.2,1.2-0.3c0.1,0,0.1-0.1,0.2-0.1
		c0,0,0.1,0-0.1,0.1c0,0-0.1,0.1-0.1,0.1c-0.1,0.1-0.1,0.2-0.2,0.3c0,0.1-0.1,0.3-0.1,0.5c0,0.2,0,0.3,0.1,0.4
		c0,0.1,0.1,0.1,0.1,0.1l0,0.1c0,0,0.1,0.1,0.1,0.1c0,0,0,0,0,0c-0.1-0.1-0.6-0.2-1.3-0.6c-0.3-0.2-0.6-0.4-0.8-0.5
		c-0.2-0.2-0.5-0.4-0.7-0.6c-0.4-0.4-0.8-0.8-1.1-1.3c-0.4-0.4-0.7-0.9-0.9-1.3c-0.6-0.9-1.1-1.8-1.6-2.7c-0.5-0.9-1-1.8-1.4-2.7
		c-0.4-0.9-0.9-1.8-1.3-2.8c-0.4-0.9-0.8-1.9-1.1-2.8l2.7,0.2c-0.7,1.2-1.4,2.4-2.1,3.6c-0.7,1.2-1.4,2.4-2.2,3.5
		c-1.5,2.3-3.1,4.6-4.7,6.9c-0.4,0.6-0.8,1.1-1.3,1.7c-0.4,0.5-0.8,1.1-1.3,1.6l-1.4,1.6l-1.4,1.6c-0.5,0.5-1,1-1.5,1.5
		c-0.5,0.5-1,1-1.5,1.5c-0.5,0.5-1.1,1-1.6,1.4l-1.8,1.3l-1-2.6c1.7-0.3,3.4-0.6,5.1-0.9l2.5-0.5l1.2-0.3c0.4-0.1,0.8-0.2,1.1-0.3
		l3-0.9l-1.4,2.8c-2.2,4.5-4.5,8.9-6.8,13.3c-1.2,2.2-2.4,4.4-3.6,6.6c-0.6,1.1-1.3,2.2-1.9,3.2c-0.3,0.5-0.7,1.1-1,1.6
		c-0.3,0.5-0.7,1.1-1.1,1.6l-0.9-1.7l5.4,0.1l1.5,0l-0.6,1.4c-1.6,3.6-3.4,7.1-5.3,10.5c-1,1.7-2,3.4-3.2,5
		c-0.6,0.8-1.2,1.6-1.9,2.3c-0.3,0.4-0.7,0.7-1.1,1.1c-0.4,0.3-0.9,0.6-1.4,0.9l-0.4-1l4.8-1.9l2.1-0.8l-1.6,1.5l-6.1,6
		L-2332.6,455.3z"/>
</g>
<g>
	<path fill="#FFFFFF" d="M-2349.4,460.6c0,0,247-82.8,450-64.4c3.1,0.3,17.1-44.3,17.1-44.3c1,0.3,13.2,8.6,13.2,8.6l19.5-30.5
		c4.6,0.7,26.1,45.2,26.1,45.2l11.3-11.9c0,0,17.4,52.9,28.8,57c27.7,10.1,49.4,22.4,70.5,40.1"/>
	<path d="M-2349.4,460.6c9.9-3.5,19.9-6.7,30-9.8c10.1-3.1,20.1-6.1,30.3-9c5.1-1.5,10.1-2.8,15.2-4.3l15.3-4.1
		c10.2-2.7,20.4-5.2,30.6-7.7c10.2-2.5,20.5-4.8,30.8-7.1c5.2-1.1,10.3-2.2,15.5-3.3l15.5-3.1l15.5-2.9l15.6-2.8
		c5.2-0.9,10.4-1.7,15.6-2.5l7.8-1.2l7.8-1.1c5.2-0.8,10.4-1.5,15.7-2.2c5.2-0.7,10.5-1.4,15.7-2l15.7-1.8l15.8-1.5
		c5.2-0.5,10.5-0.9,15.8-1.3l7.9-0.6c2.6-0.2,5.3-0.3,7.9-0.4l7.9-0.4c2.6-0.1,5.3-0.3,7.9-0.4l15.8-0.5c10.6-0.1,21.1-0.2,31.7,0.1
		l7.9,0.2l7.9,0.4l7.9,0.4l4,0.2l4,0.3l7.9,0.6l4,0.3l2,0.2l1,0.1l0.5,0c-0.2,0,0.7,0-0.5,0l0.1,0c0.1,0-0.4,0-0.6,0.1
		c-0.2,0-0.6,0.3-0.5,0.3c-0.4,0.3-0.1,0.1-0.1,0c0.1-0.1,0.3-0.4,0.4-0.6c0.3-0.5,0.6-1,0.8-1.6c0.5-1.1,1.1-2.3,1.5-3.5
		c1-2.4,1.9-4.8,2.8-7.2c3.6-9.8,7-19.7,10.2-29.7l0.9-2.7l2.5,0.9c0.2,0.1,0.4,0.2,0.6,0.2l0.3,0.1l0.1,0.1l0.5,0.3l0.9,0.6
		l1.7,1.1l3.3,2.2l6.6,4.5l-3.8,0.8l19.7-30.4l0.9-1.4l1.6,0.3c0.2,0,0.5,0.1,0.7,0.2c0.2,0.1,0.3,0.1,0.5,0.2
		c0.3,0.2,0.5,0.3,0.7,0.4c0.4,0.3,0.6,0.5,0.9,0.8c0.5,0.5,0.9,1,1.3,1.4c0.7,0.9,1.4,1.9,2,2.8c1.3,1.9,2.4,3.8,3.5,5.7
		c2.2,3.8,4.3,7.7,6.4,11.6c4.1,7.8,8,15.6,11.8,23.6l-3.4-0.5l11.4-11.8l2.3-2.4l1,3.1c1.9,5.7,3.9,11.5,6,17.2
		c2.1,5.7,4.4,11.3,6.8,16.9c1.2,2.8,2.5,5.5,3.9,8.2c1.4,2.7,2.8,5.3,4.4,7.8c0.8,1.2,1.7,2.4,2.6,3.5c0.9,1.1,2,2.1,3.1,2.7
		c0.5,0.3,1.3,0.6,2,0.8l2.1,0.8c1.4,0.5,2.8,1.1,4.3,1.7c1.4,0.6,2.8,1.2,4.2,1.8c1.4,0.6,2.8,1.2,4.2,1.9c2.8,1.3,5.5,2.6,8.3,3.9
		l4.1,2.1l4,2.2c2.7,1.5,5.3,3,7.9,4.6c2.6,1.6,5.2,3.2,7.7,4.9c1.3,0.8,2.5,1.7,3.8,2.6c1.2,0.9,2.5,1.8,3.7,2.7
		c2.5,1.8,4.9,3.7,7.2,5.6l3.5,2.9l3.5,3l-3.6-2.8l-3.6-2.8c-2.4-1.8-4.9-3.6-7.4-5.3c-1.2-0.9-2.5-1.7-3.8-2.5
		c-1.3-0.8-2.5-1.7-3.8-2.5c-2.6-1.6-5.2-3.2-7.8-4.7c-2.6-1.5-5.3-3-8-4.4l-4.1-2.1l-4.1-2c-2.8-1.3-5.5-2.5-8.3-3.7
		c-1.4-0.6-2.8-1.2-4.2-1.7c-1.4-0.6-2.8-1.1-4.2-1.7c-1.4-0.5-2.8-1.1-4.3-1.6l-2.2-0.8c-0.7-0.3-1.4-0.4-2.2-0.9
		c-0.4-0.2-0.8-0.4-1.1-0.7c-0.4-0.2-0.7-0.5-1-0.8l-0.9-0.8l-0.8-0.9c-1.1-1.2-2-2.4-2.9-3.7c-3.6-5.1-6.3-10.7-8.9-16.2
		c-2.6-5.6-5-11.2-7.2-16.9c-2.3-5.7-4.4-11.4-6.4-17.2l3.3,0.7l-11.2,12l-2.1,2.2l-1.4-2.8c-3.9-7.8-7.9-15.6-12-23.2
		c-2.1-3.8-4.2-7.6-6.4-11.3c-1.1-1.8-2.2-3.7-3.4-5.4c-0.6-0.9-1.2-1.7-1.8-2.5c-0.3-0.4-0.6-0.7-0.9-1c-0.1-0.1-0.3-0.2-0.3-0.3
		c0,0-0.1-0.1,0,0c0,0,0,0,0.1,0c0.1,0,0.2,0.1,0.3,0.1l2.5-1.1l-19.4,30.6l-1.5,2.3l-2.3-1.5l-6.5-4.4l-3.3-2.1l-1.6-1l-0.8-0.5
		l-0.3-0.2l-0.1,0c0,0,0,0,0,0c0,0,0.1,0,0.1,0l3.4-1.8c-3.2,10.1-6.4,20.1-10,30.1c-0.9,2.5-1.9,5-2.9,7.5
		c-0.5,1.2-1.1,2.5-1.7,3.8c-0.3,0.6-0.6,1.3-1,1.9c-0.2,0.3-0.4,0.7-0.7,1.1c-0.3,0.4-0.5,0.8-1.4,1.4c0,0-0.5,0.3-0.7,0.4
		c-0.2,0.1-0.8,0.2-0.8,0.2l-0.1,0c-1.2,0-0.4,0-0.7,0l-0.5,0l-1-0.1l-2-0.1l-3.9-0.3l-7.8-0.6l-3.9-0.3l-3.9-0.2l-7.8-0.3l-7.8-0.3
		l-7.9-0.1c-10.5-0.3-21-0.1-31.4,0l-15.7,0.5c-2.6,0.1-5.2,0.2-7.9,0.3l-7.9,0.4c-2.6,0.1-5.2,0.2-7.9,0.4l-7.8,0.6
		c-5.2,0.4-10.5,0.7-15.7,1.2l-15.7,1.4l-15.7,1.6c-5.2,0.6-10.4,1.2-15.6,1.8c-5.2,0.6-10.4,1.3-15.6,2l-7.8,1.1l-7.8,1.2
		c-5.2,0.8-10.4,1.5-15.6,2.4l-15.5,2.5l-15.5,2.7l-15.5,2.9c-5.2,1-10.3,2-15.5,3c-10.3,2.1-20.6,4.2-30.9,6.4
		c-10.3,2.2-20.5,4.6-30.7,7l-15.3,3.7c-5.1,1.3-10.2,2.5-15.3,3.8c-10.2,2.6-20.3,5.3-30.5,8.1
		C-2329.2,454.7-2339.3,457.5-2349.4,460.6z"/>
</g>
<circle fill="#FACA17" cx="-1019" cy="115.3" r="86.4"/>
<circle fill="#FACA17" cx="-724.5" cy="115.3" r="86.4"/>
<circle fill="#FACA17" cx="-444.6" cy="115.3" r="86.4"/>
<circle fill="#FACA17" cx="-165.3" cy="115.3" r="86.4"/>
<circle fill="#FACA17" cx="115.3" cy="115.3" r="86.4"/>
<circle fill="#FACA17" cx="411.6" cy="115.3" r="86.4"/>
<circle fill="#FACA17" cx="411.6" cy="394.8" r="86.4"/>
<circle fill="#FACA17" cx="115.3" cy="394.8" r="86.4"/>
<circle fill="#FACA17" cx="-167.9" cy="394.8" r="86.4"/>
<circle fill="#FACA17" cx="-444.6" cy="394.8" r="86.4"/>
<circle fill="#FACA17" cx="-724.5" cy="394.8" r="86.4"/>
<circle fill="#FACA17" cx="-1019" cy="394.8" r="86.4"/>
<g>
	
		<polyline fill="#FACA17" stroke="#F1F2F2" stroke-width="18" stroke-linecap="round" stroke-linejoin="round" stroke-miterlimit="10" points="
		-995.6,74 -1063.9,116 -995.6,154.6 	"/>
	
		<circle fill="#FACA17" stroke="#F1F2F2" stroke-width="18" stroke-linecap="round" stroke-linejoin="round" stroke-miterlimit="10" cx="-995.6" cy="74" r="14.9"/>
	
		<circle fill="#FACA17" stroke="#F1F2F2" stroke-width="18" stroke-linecap="round" stroke-linejoin="round" stroke-miterlimit="10" cx="-1063.9" cy="117.8" r="14.9"/>
	
		<circle fill="#FACA17" stroke="#F1F2F2" stroke-width="18" stroke-linecap="round" stroke-linejoin="round" stroke-miterlimit="10" cx="-995.6" cy="154.6" r="14.9"/>
</g>
<polyline fill="#F1F2F2" stroke="#F1F2F2" stroke-width="18" stroke-linecap="round" stroke-linejoin="round" stroke-miterlimit="10" points="
	-722.6,67.1 -701.7,67.1 -683.3,86.1 -683.3,147.7 -670.2,147.7 -670.2,152.7 -687.7,152.7 -688.6,168.4 -696.4,168.4 -696.4,153.6 
	-722.6,153.6 -726.4,153.6 -752.6,153.6 -752.6,168.4 -760.4,168.4 -761.3,152.7 -778.8,152.7 -778.8,147.7 -765.6,147.7 
	-765.6,86.1 -747.3,67.1 -726.4,67.1 "/>
<line fill="#F1F2F2" stroke="#FACA17" stroke-width="9" stroke-linecap="round" stroke-linejoin="round" stroke-miterlimit="10" x1="-747.3" y1="77.3" x2="-701.7" y2="77.3"/>
<path fill="#F1F2F2" stroke="#FACA17" stroke-width="9" stroke-linecap="round" stroke-linejoin="round" stroke-miterlimit="10" d="
	M-724.5,115.3h35.8c0-12-6-24.6-6-24.6s-29.8,0-29.8,0h-29.8c0,0-6,12.6-6,24.6C-760.3,115.3-724.5,115.3-724.5,115.3z"/>
<circle fill="#FACA17" cx="-760.3" cy="141.1" r="7"/>
<circle fill="#FACA17" cx="-688.6" cy="141.1" r="7"/>
<circle fill="none" stroke="#F1F2F2" stroke-width="18" stroke-miterlimit="10" cx="-444.6" cy="115.3" r="42"/>
<path fill="none" stroke="#F1F2F2" stroke-width="9" stroke-miterlimit="10" d="M-420.6,83.7c0,0,113.4-16.1-20,50.6
	c-117.6,58.8-46-12.6-46-12.6"/>
<path fill="none" stroke="#F1F2F2" stroke-width="18" stroke-miterlimit="10" d="M-124.8,143.6h-80.9c-6.6,0-12-5.4-12-12v-55
	c0-6.6,5.4-12,12-12h80.9c6.6,0,12,5.4,12,12v55C-112.8,138.2-118.2,143.6-124.8,143.6z"/>
<line fill="none" stroke="#F1F2F2" stroke-width="18" stroke-linecap="round" stroke-miterlimit="10" x1="-214.2" y1="168" x2="-116.3" y2="168"/>
<path fill="none" stroke="#F1F2F2" stroke-width="6" stroke-miterlimit="10" d="M-155.5,129.3H-175c-3.5,0-6.3-2.9-6.3-6.3V88.3
	c0-3.5,2.9-6.3,6.3-6.3h19.5c3.5,0,6.3,2.9,6.3,6.3V123C-149.2,126.4-152,129.3-155.5,129.3z"/>
<circle fill="#F1F2F2" cx="-165.3" cy="121.8" r="3.1"/>
<path fill="#F1F2F2" d="M-154.6,117.3h-20.7c-0.4,0-0.8-0.3-0.8-0.8V87.7c0-0.4,0.3-0.8,0.8-0.8h20.7c0.4,0,0.8,0.3,0.8,0.8v28.8
	C-153.9,116.9-154.2,117.3-154.6,117.3z"/>
<g>
	<path fill="#F1F2F2" d="M149.2,178.9h-68c-3.3,0-5.9-2.6-5.9-5.9V62.3c0-3.3,2.6-5.9,5.9-5.9h68c3.3,0,5.9,2.6,5.9,5.9V173
		C155.2,176.3,152.5,178.9,149.2,178.9z"/>
	<path fill="#F1F2F2" d="M142.3,68.2H88.5c-3.3,0-5.9-2.6-5.9-5.9v-5.9c0-3.3,2.6-5.9,5.9-5.9h53.8c3.3,0,5.9,2.6,5.9,5.9v5.9
		C148.2,65.5,145.5,68.2,142.3,68.2z"/>
	<path fill="#F1F2F2" d="M154.9,181.6H76c-3.3,0-5.9-2.6-5.9-5.9v-5.9c0-3.3,2.6-5.9,5.9-5.9h78.9c3.3,0,5.9,2.6,5.9,5.9v5.9
		C160.8,179,158.2,181.6,154.9,181.6z"/>
	
		<polygon fill="#F1F2F2" stroke="#F1F2F2" stroke-width="4" stroke-linecap="round" stroke-linejoin="round" stroke-miterlimit="10" points="
		116.5,41.5 98.8,53.3 134.3,53.3 	"/>
	
		<path fill="#F1F2F2" stroke="#F1F2F2" stroke-width="4" stroke-linecap="round" stroke-linejoin="round" stroke-miterlimit="10" d="
		M116.4,57.3L116.4,57.3c-2.8,0-5.2-2.3-5.2-5.2v-9.5c0-2.8,2.3-5.2,5.2-5.2h0c2.8,0,5.2,2.3,5.2,5.2v9.5
		C121.5,55,119.2,57.3,116.4,57.3z"/>
	
		<line fill="none" stroke="#FACA17" stroke-width="6" stroke-linecap="round" stroke-linejoin="round" stroke-miterlimit="10" x1="115.4" y1="74.3" x2="115.4" y2="166"/>
	
		<line fill="none" stroke="#FACA17" stroke-width="6" stroke-linecap="round" stroke-linejoin="round" stroke-miterlimit="10" x1="85.4" y1="64.8" x2="145.1" y2="64.8"/>
	<path fill="none" stroke="#FACA17" stroke-width="6" stroke-miterlimit="10" d="M88.8,117.3h14.9c1.6,0,3-1.3,3-3V81.5
		c0-1.6-1.3-3-3-3H88.8c-1.6,0-3,1.3-3,3v32.8C85.8,115.9,87.1,117.3,88.8,117.3z"/>
	<path fill="none" stroke="#FACA17" stroke-width="6" stroke-miterlimit="10" d="M88.6,154.2h14.9c1.6,0,3-1.3,3-3v-21.9
		c0-1.6-1.3-3-3-3H88.6c-1.6,0-3,1.3-3,3v21.9C85.6,152.9,87,154.2,88.6,154.2z"/>
	<path fill="none" stroke="#FACA17" stroke-width="6" stroke-miterlimit="10" d="M126.8,117.3h14.9c1.6,0,3-1.3,3-3V81.5
		c0-1.6-1.3-3-3-3h-14.9c-1.6,0-3,1.3-3,3v32.8C123.9,115.9,125.2,117.3,126.8,117.3z"/>
	<line fill="none" stroke="#FACA17" stroke-width="6" stroke-miterlimit="10" x1="96.2" y1="78.6" x2="96.2" y2="117.6"/>
	<line fill="none" stroke="#FACA17" stroke-width="6" stroke-miterlimit="10" x1="85.4" y1="92.5" x2="106.6" y2="92.5"/>
	<line fill="none" stroke="#FACA17" stroke-width="6" stroke-miterlimit="10" x1="85.6" y1="105.6" x2="106.8" y2="105.6"/>
	<line fill="none" stroke="#FACA17" stroke-width="6" stroke-miterlimit="10" x1="134.3" y1="78.6" x2="134.3" y2="117.3"/>
	<line fill="none" stroke="#FACA17" stroke-width="6" stroke-miterlimit="10" x1="123.9" y1="92.5" x2="144.7" y2="92.5"/>
	<line fill="none" stroke="#FACA17" stroke-width="6" stroke-miterlimit="10" x1="123.9" y1="105.6" x2="144.7" y2="105.6"/>
</g>
</svg>
